<svg width="81" height="34" viewBox="0 0 81 34" fill="none" xmlns="http://www.w3.org/2000/svg">
<path d="M41.5445 21.3533L42.8434 18.4048L40.0337 12.6691H42.4063L43.2931 14.4778L44.0047 16.1626L44.6168 14.5026L45.4161 12.6691H47.7886L43.8549 21.3533H41.5445Z" fill="white"/>
<path d="M52.3581 20.0639H49.3734L48.8864 21.3399H46.6011L50.0976 12.5691H51.621L55.2551 21.3399H52.8448L52.3581 20.0639ZM50.2226 17.8959L50.1475 18.0942H51.5962L51.5463 17.9455L50.8721 16.0626L50.2226 17.8959Z" fill="white"/>
<path d="M58.0536 18.4048V21.3408H55.9307V12.6691H59.3273C62.7991 12.6691 63.3113 16.9182 60.6262 18.1942L62.4995 20.9444V21.3408H60.2268L58.4035 18.4048H58.0536ZM58.0536 16.4847H59.2774C59.4012 16.4939 59.5255 16.4777 59.6427 16.4371C59.7599 16.3965 59.8673 16.3323 59.9583 16.2485C60.0493 16.1648 60.1219 16.0633 60.1716 15.9505C60.2212 15.8376 60.2468 15.7158 60.2468 15.5927C60.2468 15.4696 60.2212 15.3478 60.1716 15.2349C60.1219 15.1221 60.0493 15.0206 59.9583 14.9369C59.8673 14.8531 59.7599 14.7889 59.6427 14.7483C59.5255 14.7077 59.4012 14.6915 59.2774 14.7007H58.0536V16.4847Z" fill="white"/>
<path d="M68.8552 20.0639H65.8705L65.3834 21.3399H63.0981L66.5947 12.5691H68.1181L71.7522 21.3399H69.3419L68.8552 20.0639ZM66.7197 17.8959L66.6446 18.0942H68.0933L68.0434 17.9455L67.3691 16.0626L66.7197 17.8959Z" fill="white"/>
<path d="M74.6643 21.3408H72.5288V12.6691H74.2271L76.525 16.0263L78.8229 12.6691H80.4964V21.3408H78.3731V17.0545L77.1119 18.9003H75.9255L74.6643 17.0297V21.3408Z" fill="white"/>
<path d="M26.9402 1.03908C25.2341 1.03608 23.5448 1.37387 21.9732 2.03232C20.4015 2.69076 18.9795 3.65638 17.7921 4.87161C16.6043 3.65664 15.1823 2.69119 13.6106 2.03277C12.0389 1.37435 10.3497 1.03641 8.64357 1.03908C8.37201 1.03908 8.11156 1.1461 7.91953 1.33659C7.72751 1.52708 7.61963 1.78544 7.61963 2.05483C7.61963 2.32423 7.72751 2.58259 7.91953 2.77308C8.11156 2.96357 8.37201 3.07059 8.64357 3.07059C10.1125 3.06778 11.5663 3.36555 12.914 3.9453C14.2618 4.52506 15.4745 5.37432 16.4763 6.44003C15.4719 7.85888 14.7724 9.46757 14.4215 11.1661C14.3945 11.2968 14.3938 11.4316 14.4194 11.5626C14.445 11.6936 14.4963 11.8184 14.5705 11.9297C14.6448 12.041 14.7404 12.1368 14.8519 12.2114C14.9634 12.2861 15.0887 12.3382 15.2205 12.3648C15.3524 12.3914 15.4882 12.392 15.6203 12.3665C15.7523 12.341 15.878 12.2899 15.9902 12.2162C16.1023 12.1424 16.1987 12.0475 16.2739 11.9368C16.349 11.8261 16.4015 11.7018 16.4281 11.571C16.7721 9.90919 17.5127 8.35347 18.5879 7.03425L18.5894 7.03261C19.5927 5.79319 20.8642 4.79353 22.3097 4.1077C23.7552 3.42186 25.3378 3.0674 26.9402 3.07059C27.2117 3.07059 27.4722 2.96357 27.6642 2.77308C27.8562 2.58259 27.9641 2.32423 27.9641 2.05483C27.9641 1.78544 27.8562 1.52708 27.6642 1.33659C27.4722 1.1461 27.2117 1.03908 26.9402 1.03908Z" fill="#FDC759" stroke="#FDC759" stroke-width="0.75" stroke-miterlimit="10"/>
<path d="M33.9151 26.2075C33.9182 24.5151 33.5777 22.8394 32.9139 21.2803C32.2501 19.7212 31.2767 18.3106 30.0517 17.1326C31.2765 15.9544 32.2497 14.5437 32.9134 12.9846C33.5772 11.4255 33.9178 9.74977 33.9151 8.05732C33.9151 7.92393 33.8887 7.79184 33.8372 7.66861C33.7857 7.54537 33.7103 7.43339 33.6152 7.33907C33.5202 7.24475 33.4073 7.16993 33.283 7.11888C33.1588 7.06784 33.0257 7.04156 32.8912 7.04156C32.7567 7.04156 32.6236 7.06784 32.4993 7.11888C32.3751 7.16993 32.2622 7.24475 32.1672 7.33907C32.0721 7.43339 31.9967 7.54537 31.9452 7.66861C31.8937 7.79184 31.8673 7.92393 31.8673 8.05732C31.8701 9.51454 31.5699 10.9567 30.9855 12.2936C30.4011 13.6306 29.5449 14.8336 28.4706 15.8274C27.0403 14.831 25.4187 14.1371 23.7065 13.789C23.5747 13.7624 23.439 13.7618 23.307 13.7873C23.175 13.8127 23.0494 13.8637 22.9372 13.9373C22.8251 14.011 22.7287 14.1058 22.6535 14.2164C22.5784 14.3269 22.5259 14.4511 22.4991 14.5818C22.4723 14.7125 22.4717 14.8472 22.4973 14.9781C22.523 15.1091 22.5744 15.2337 22.6486 15.3449C22.7228 15.4562 22.8184 15.5518 22.9299 15.6264C23.0414 15.701 23.1666 15.753 23.2983 15.7796C24.9735 16.1208 26.5418 16.8555 27.8716 17.9221L27.8733 17.9236C29.1227 18.9188 30.1304 20.1801 30.8218 21.6141C31.5131 23.0481 31.8705 24.618 31.8673 26.2075C31.8673 26.3409 31.8937 26.473 31.9452 26.5963C31.9967 26.7195 32.0721 26.8315 32.1672 26.9258C32.2622 27.0201 32.3751 27.0949 32.4993 27.146C32.6236 27.197 32.7567 27.2233 32.8912 27.2233C33.0257 27.2233 33.1588 27.197 33.283 27.146C33.4073 27.0949 33.5202 27.0201 33.6152 26.9258C33.7103 26.8315 33.7857 26.7195 33.8372 26.5963C33.8887 26.473 33.9151 26.3409 33.9151 26.2075Z" fill="#BFE1DA" stroke="#BFE1DA" stroke-width="0.75" stroke-miterlimit="10"/>
<path d="M8.64357 33.3717C10.3497 33.3747 12.0389 33.0369 13.6106 32.3784C15.1823 31.72 16.6042 30.7544 17.7917 29.5391C18.9794 30.7541 20.4015 31.7196 21.9732 32.378C23.5449 33.0364 25.2341 33.3744 26.9402 33.3717C27.2117 33.3717 27.4722 33.2647 27.6642 33.0742C27.8562 32.8837 27.9641 32.6253 27.9641 32.3559C27.9641 32.0865 27.8562 31.8282 27.6642 31.6377C27.4722 31.4472 27.2117 31.3402 26.9402 31.3402C25.4712 31.343 24.0174 31.0452 22.6697 30.4655C21.322 29.8857 20.1093 29.0364 19.1074 27.9707C20.1119 26.5519 20.8113 24.9432 21.1623 23.2447C21.2164 22.9807 21.1626 22.7062 21.0127 22.4816C20.8628 22.257 20.6291 22.1006 20.363 22.0469C20.0969 21.9932 19.8202 22.0466 19.5938 22.1953C19.3673 22.344 19.2097 22.5758 19.1556 22.8398C18.8116 24.5016 18.071 26.0573 16.9958 27.3765L16.9943 27.3781C15.9911 28.6176 14.7196 29.6172 13.274 30.3031C11.8285 30.9889 10.2459 31.3434 8.64357 31.3402C8.37201 31.3402 8.11156 31.4472 7.91953 31.6377C7.72751 31.8282 7.61963 32.0865 7.61963 32.3559C7.61963 32.6253 7.72751 32.8837 7.91953 33.0742C8.11156 33.2647 8.37201 33.3717 8.64357 33.3717Z" fill="white" stroke="white" stroke-width="0.75" stroke-miterlimit="10"/>
<path d="M1.32424 8.05732C1.32121 9.74976 1.66173 11.4255 2.32548 12.9846C2.98924 14.5437 3.96264 15.9543 5.18768 17.1322C3.9629 18.3105 2.98967 19.7212 2.32594 21.2803C1.66221 22.8394 1.32154 24.5151 1.32424 26.2075C1.32424 26.4769 1.43212 26.7353 1.62414 26.9258C1.81617 27.1163 2.07662 27.2233 2.34818 27.2233C2.61975 27.2233 2.88019 27.1163 3.07222 26.9258C3.26425 26.7353 3.37213 26.4769 3.37213 26.2075C3.36929 24.7503 3.66947 23.3082 4.2539 21.9712C4.83832 20.6343 5.69444 19.4313 6.76874 18.4374C8.19903 19.4339 9.8207 20.1277 11.5329 20.4759C11.6647 20.5026 11.8005 20.5033 11.9326 20.4779C12.0647 20.4525 12.1905 20.4016 12.3027 20.328C12.4149 20.2544 12.5114 20.1595 12.5867 20.0489C12.6619 19.9383 12.7145 19.814 12.7413 19.6832C12.7681 19.5524 12.7687 19.4177 12.743 19.2867C12.7173 19.1557 12.6658 19.031 12.5914 18.9197C12.5171 18.8084 12.4214 18.7128 12.3098 18.6383C12.1982 18.5637 12.0729 18.5117 11.9411 18.4852C10.2659 18.144 8.69761 17.4093 7.36776 16.3427L7.36611 16.3413C6.11668 15.346 5.10897 14.0847 4.4176 12.6507C3.72623 11.2168 3.36892 9.64686 3.37213 8.05732C3.37213 7.78792 3.26425 7.52956 3.07222 7.33907C2.88019 7.14858 2.61975 7.04156 2.34818 7.04156C2.07662 7.04156 1.81617 7.14858 1.62414 7.33907C1.43212 7.52956 1.32424 7.78792 1.32424 8.05732Z" fill="#422335" stroke="#422335" stroke-width="0.75" stroke-miterlimit="10"/>
</svg>
