<svg width="157" height="105" viewBox="0 0 157 105" fill="none" xmlns="http://www.w3.org/2000/svg">
<path d="M105.547 76.8925C106.629 75.4011 107.724 73.9118 108.681 72.3421C109.769 70.5359 110.561 68.5695 111.028 66.5162C111.367 65.0697 111.746 63.6294 112.003 62.1672C112.185 61.1277 112.271 60.0736 112.258 59.0184C112.232 56.9926 112.205 54.9564 111.984 52.9462C111.818 51.4444 111.411 49.9571 110.992 48.498C110.611 47.1673 110.064 45.8888 109.606 44.5759C109.549 44.419 109.553 44.2467 109.617 44.0926C109.886 43.5896 110.257 43.1335 110.474 42.6127C111.066 41.1912 111.557 39.7321 111.628 38.1781C111.681 37.407 111.673 36.6331 111.606 35.8632C111.521 35.0669 111.434 34.2277 111.115 33.5086C110.486 32.0955 109.697 30.7533 108.98 29.3777C108.862 29.1513 108.778 28.9081 108.629 28.5584C109.324 28.6419 109.888 28.7672 110.453 28.7672C111.408 28.7641 112.363 28.7129 113.313 28.6138C114.134 28.5295 114.948 28.39 115.751 28.1963C117.977 27.6515 119.789 26.3646 121.46 24.8742C123.074 23.435 123.984 21.523 124.817 19.589C125.29 18.4973 125.656 17.3607 126.042 16.2315C126.19 15.79 126.237 15.3141 126.331 14.8538C125.567 15.2869 124.977 15.7994 124.332 16.2283C121.848 17.8815 119.079 18.8783 116.202 19.588C114.817 19.9293 113.407 20.186 111.998 20.4229C110.48 20.6724 108.95 20.854 107.424 21.0564C106.309 21.2046 105.188 21.3142 104.076 21.4843C102.386 21.7421 100.692 21.9884 99.0202 22.3329C97.6822 22.5969 96.3626 22.9466 95.0698 23.3797C92.634 24.2209 90.7846 25.6904 89.9297 28.2568C89.4946 29.557 89.4 30.9461 89.6549 32.2927C89.978 34.0284 90.9137 35.501 92.334 36.599C93.5456 37.531 94.9009 38.0915 96.6432 37.9662C96.4271 37.6155 96.2551 37.3765 96.125 37.1156C95.8911 36.6512 95.5733 36.193 95.4862 35.6972C95.2764 34.496 95.7443 33.4617 96.4922 32.5307C97.8233 30.8775 100.217 30.7147 101.877 31.3931C103.682 32.131 104.754 33.4982 105.166 35.4426C105.495 36.9935 105.258 38.416 104.543 39.7676C102.806 43.0563 99.8825 44.7773 96.3537 45.4306C94.3134 45.8074 92.2155 45.6623 90.2696 44.675C88.5104 43.7806 86.9957 42.597 85.8481 41.0044C84.8757 39.6528 84.0554 38.201 83.6767 36.5541C83.3977 35.3382 83.0473 34.1255 82.9225 32.8918C82.7588 31.3085 82.9414 29.7263 83.2466 28.1504C83.5274 26.6766 83.9594 25.2354 84.5358 23.8493C85.6394 21.2036 87.2884 18.9273 89.3014 16.9026C90.1217 16.0781 90.9955 15.3057 91.8976 14.4583C90.6514 13.569 89.2269 13.1672 87.7594 12.9741C86.2467 12.7758 84.7677 13.043 83.3442 13.7454C83.3355 13.6033 83.3355 13.4607 83.3442 13.3186C83.4491 12.588 83.641 11.8637 83.6589 11.1331C83.683 10.1865 83.5812 9.2367 83.5162 8.28904C83.4354 7.11698 83.0379 6.03572 82.5239 4.98995C81.6112 3.11966 80.1427 1.68042 78.7653 0.16708C78.5461 -0.0740109 78.4265 -0.0416567 78.2408 0.183779C77.1709 1.47377 76.038 2.71471 75.033 4.05272C74.1369 5.24883 73.603 6.67483 73.4942 8.16275C73.3767 9.75646 73.5644 11.3721 73.6169 12.9773C73.6242 13.2131 73.6169 13.4501 73.6169 13.6317C72.7777 13.401 71.9689 13.066 71.136 12.9752C69.1251 12.756 67.2338 13.2455 65.4621 14.2005C65.1579 14.3643 65.1358 14.5584 65.4117 14.7901C68.0195 16.9819 70.2717 19.4585 71.8588 22.5072C73.0195 24.7162 73.7479 27.1246 74.005 29.6042C74.1613 31.1196 73.9589 32.6747 73.876 34.21C73.7994 35.6284 73.3263 36.9632 72.7557 38.2365C71.6805 40.6318 70.1427 42.668 67.838 44.0613C66.7334 44.7293 65.5764 45.3138 64.3029 45.4578C62.205 45.6895 60.1395 45.5695 58.1454 44.7001C55.4663 43.5322 53.3116 41.8675 52.1661 39.0955C51.5393 37.6277 51.5167 35.9738 52.1032 34.4897C52.7252 32.8678 53.877 31.7072 55.6278 31.2543C57.2453 30.8368 58.7863 30.9266 60.0818 32.1101C61.542 33.445 62.2438 35.4186 60.7867 37.2743C60.6378 37.4642 60.5255 37.6823 60.3671 37.9349C61.3112 38.0727 62.1042 37.8848 62.891 37.5874C65.7914 36.4915 67.3387 33.7664 67.5401 31.1009C67.6324 29.8944 67.345 28.7213 66.874 27.6358C65.825 25.2166 63.8172 23.89 61.3584 23.1595C60.5192 22.91 59.6748 22.6908 58.8241 22.4957C57.602 22.217 56.3789 21.931 55.1432 21.7265C53.9075 21.5219 52.6361 21.4134 51.3804 21.2568C50.7269 21.1775 50.0703 21.1138 49.4188 21.0199C48.1695 20.8404 46.9233 20.6442 45.675 20.4553C44.6501 20.3008 43.6085 20.2215 42.6057 19.9783C40.9105 19.5713 39.2321 19.0943 37.5642 18.5787C35.5875 17.9526 33.7307 17 32.0717 15.7608C31.6186 15.4268 31.179 15.0751 30.7332 14.7307C30.7098 15.1574 30.7657 15.5848 30.8979 15.9914C31.3532 17.2887 31.8105 18.586 32.3203 19.8625C32.921 21.4103 33.7714 22.8504 34.8379 24.1259C35.8114 25.274 37.0198 26.1496 38.2996 26.9199C39.4902 27.6358 40.7427 28.213 42.142 28.405C42.7714 28.4916 43.406 28.6388 44.0417 28.6691C45.0802 28.7192 46.1229 28.7046 47.1635 28.6972C47.5181 28.6972 47.8726 28.6315 48.3373 28.5856C48.2746 28.7759 48.2007 28.9623 48.116 29.1439C47.6964 29.8745 47.2632 30.5988 46.8572 31.3357C46.0317 32.8459 45.4516 34.4406 45.3288 36.1669C45.2148 37.7507 45.414 39.3414 45.9152 40.8489C46.2824 41.9646 46.6359 43.0688 47.3167 44.0467C47.4216 44.197 47.3869 44.5039 47.3167 44.7032C46.8834 45.9368 46.3642 47.1423 45.9876 48.3916C45.6729 49.4353 45.4862 50.5259 45.2963 51.604C45.076 52.8565 44.8243 54.1089 44.7445 55.3749C44.5715 58.1093 44.6491 60.8417 45.2963 63.524C45.6876 65.1459 46.0831 66.7698 46.5677 68.3656C47.1541 70.3006 48.0824 72.079 49.2132 73.7677C50.836 76.1922 52.5899 78.5175 54.5945 80.6331C56.2289 82.3562 57.9807 83.9729 59.744 85.5718C61.457 87.1227 63.3179 88.514 64.989 90.1045C67.2485 92.2524 69.3895 94.5256 71.584 96.7424C73.7264 98.8862 75.7239 101.169 77.5632 103.575C77.9052 104.026 78.1926 104.52 78.4664 104.947C79.3811 103.747 80.2066 102.553 81.1476 101.456C82.6676 99.697 84.2337 97.9854 85.8072 96.2863C88.4916 93.3942 91.2882 90.6191 94.3218 88.0798C96.3831 86.3556 98.3909 84.5636 100.356 82.7319C102.271 80.956 104.009 79.0005 105.547 76.8925ZM94.0522 80.9629C91.2651 83.3811 88.4045 85.7169 85.568 88.0787C83.3536 89.9229 81.1256 91.7515 79.2227 93.9234C79.0014 94.177 78.8031 94.4525 78.5346 94.798C78.0489 94.2229 77.6429 93.6291 77.1268 93.1542C75.3299 91.501 73.5225 89.8582 71.6721 88.2708C69.6014 86.4965 67.4635 84.8047 65.3781 83.0524C62.7295 80.8241 60.1636 78.5008 57.8254 75.9428C56.0883 74.0391 54.4844 72.0185 53.383 69.6807C52.8081 68.4606 52.4231 67.1445 52.0413 65.8462C51.6999 64.718 51.4397 63.567 51.263 62.402C51.0923 61.1139 50.9939 59.8174 50.9682 58.5185C50.9262 57.147 50.9157 55.7673 51.0102 54.399C51.1371 52.5559 51.4749 50.7461 52.2878 49.0846C53.4134 49.5282 54.4792 49.9863 55.5733 50.3683C56.4932 50.6866 57.4291 50.9573 58.3772 51.1793C59.3795 51.4261 60.3952 51.6157 61.4193 51.747C62.4871 51.8712 63.5749 51.9714 64.646 51.9119C67.5223 51.7543 70.2591 51.0707 72.698 49.4603C74.6596 48.1641 76.1659 46.442 77.3461 44.4381C77.8034 43.6606 78.1538 42.8204 78.5534 42.0074C79.0989 43.0406 79.5741 44.0874 80.1773 45.0549C81.7508 47.5796 83.898 49.5021 86.6537 50.6647C88.1905 51.3129 89.8007 51.7533 91.5032 51.7919C92.3361 51.8107 93.1753 51.9756 93.9977 51.9109C95.2528 51.7979 96.5013 51.6216 97.7384 51.3828C98.6996 51.207 99.6501 50.9773 100.585 50.695C101.415 50.4455 102.22 50.1043 103.027 49.7849C103.562 49.5762 104.085 49.3309 104.732 49.0543C104.926 49.5438 105.167 50.0364 105.318 50.5562C105.709 51.8973 105.974 53.2614 106.001 54.6673C106.027 56.0345 106.169 57.4038 106.124 58.7668C106.079 60.1137 105.939 61.4557 105.704 62.7829C105.277 65.1834 104.693 67.5568 103.606 69.761C102.754 71.4956 101.627 73.0611 100.397 74.5568C98.4779 76.8821 96.3264 78.9872 94.0522 80.9598V80.9629Z" fill="#EFB113"/>
<path d="M156.783 104.392C156.206 103.32 155.634 102.246 155.033 101.189C154.065 99.4863 152.982 97.8603 151.684 96.3876C150.511 95.0359 149.175 93.8331 147.706 92.8068C146.432 91.9269 145.116 91.1212 143.657 90.5879C142.552 90.184 141.429 89.8239 140.3 89.4983C139.245 89.1956 138.169 88.9618 137.103 88.703C136.473 88.5496 135.831 88.4066 135.26 88.273C136.675 87.9369 138.116 87.6363 139.531 87.246C140.946 86.8557 142.244 86.1856 143.491 85.4206C145.42 84.2238 147.129 82.7057 148.541 80.9328C150.58 78.4091 151.926 75.54 152.709 72.4142C153.001 71.2515 153.275 70.0534 153.303 68.8657C153.362 66.857 153.292 64.8465 153.093 62.8468C152.944 61.4346 152.517 60.0403 152.108 58.672C151.732 57.4081 151.309 56.139 150.734 54.9554C149.812 53.0591 148.784 51.2097 147.735 49.378C146.305 46.8836 144.757 44.456 143.37 41.9397C142.486 40.3146 141.707 38.6354 141.036 36.9122C140.539 35.6504 140.213 34.3093 139.926 32.9786C139.633 31.6726 139.435 30.3471 139.335 29.0126C139.236 27.5055 139.316 25.9859 139.316 24.4757C139.316 24.3285 139.3 24.1814 139.289 23.9883C139.175 24.0187 139.064 24.0585 138.956 24.1073C137.48 24.9683 136.543 26.3084 135.761 27.7602C134.887 29.3768 134.187 31.0718 133.834 32.8805C133.604 34.04 133.346 35.2058 133.259 36.3799C133.12 38.2815 133.242 40.1873 133.865 42.0096C134.27 43.1931 134.705 44.3829 135.281 45.4882C136.053 46.9681 136.977 48.3688 137.909 49.927C137.662 49.856 137.543 49.8226 137.426 49.7871C136.641 49.5502 135.87 49.1818 135.07 49.1014C133.022 48.8927 131.011 49.0952 129.056 49.856C126.509 50.8465 124.455 52.4193 122.998 54.7102C121.926 56.3936 121.312 58.2587 121.283 60.2647C121.264 61.2299 121.334 62.1949 121.493 63.1473C121.628 63.9531 121.876 64.7363 122.227 65.4747C122.943 66.9406 124.036 68.1919 125.395 69.1016C127.326 70.4197 129.437 71.0908 131.803 71.0115C133.135 70.9666 134.352 70.6483 135.444 69.9146C135.871 69.6286 136.34 69.3239 136.453 68.8427C135.556 68.6455 134.682 68.5233 133.854 68.2551C132.034 67.6654 130.887 66.3671 130.543 64.5239C130.229 62.8353 130.543 61.1842 131.655 59.8034C133.029 58.0855 134.828 57.3375 137.052 57.5594C138.013 57.6373 138.955 57.8633 139.846 58.2295C143.193 59.6635 144.741 62.3813 145.145 65.8129C145.282 66.9818 145.094 68.1935 144.994 69.3813C144.855 71.0407 144.245 72.5833 143.43 73.9985C140.947 78.3121 137.126 80.5977 132.168 80.9474C130.93 81.034 129.671 80.843 128.422 80.7532C128.008 80.7153 127.599 80.6373 127.2 80.5205C126.311 80.2763 125.426 80.0154 124.545 79.7377C123.538 79.4184 122.52 79.0917 121.713 78.381C120.071 76.9271 118.39 75.5098 116.848 73.9547C115.269 72.3631 113.832 70.6316 112.348 68.945C111.986 68.5348 111.682 68.0725 111.318 67.5882C111.056 68.2144 110.808 68.755 110.606 69.3092C109.873 71.2943 108.863 73.167 107.606 74.8721C107.563 74.9483 107.536 75.0332 107.529 75.1207C107.522 75.2081 107.534 75.296 107.565 75.3783C108.302 77.0332 108.748 78.8013 108.885 80.6061C108.932 81.1592 108.911 81.7187 108.929 82.276C108.989 84.1692 108.859 86.0573 108.421 87.8921C108.033 89.4619 107.549 91.007 106.974 92.5187C106.361 94.1698 105.438 95.6633 104.358 97.0692C103.47 98.2074 102.397 99.1898 101.183 99.9758C100.134 100.688 99.0369 101.327 97.8998 101.89C97.0501 102.298 96.0956 102.491 95.0581 102.821C95.3728 103.084 95.6109 103.331 95.8973 103.517C97.5033 104.574 99.3443 104.838 101.199 104.952C102.163 105.011 103.138 104.853 104.109 104.811C105.85 104.721 107.568 104.363 109.2 103.751C111.155 103.039 112.713 101.806 113.949 100.157C114.842 98.9761 115.484 97.6269 115.838 96.1914C116.116 95.0632 116.398 93.936 116.629 92.7984C116.764 92.1419 116.793 91.4656 116.891 90.8018C116.914 90.6505 117.026 90.5138 117.14 90.28C117.427 90.7831 117.69 91.1765 117.886 91.5992C118.906 93.8056 120.178 95.8167 122.075 97.4052C123.606 98.6879 125.279 99.7379 127.169 100.343C128.869 100.88 130.605 101.298 132.364 101.596C133.863 101.856 135.4 101.936 136.925 102.013C139.119 102.127 141.316 102.191 143.514 102.23C145.757 102.271 147.987 102.395 150.182 102.887C151.154 103.104 152.136 103.304 153.083 103.598C154.361 104.003 155.61 104.498 157 105C156.941 104.793 156.868 104.59 156.783 104.392Z" fill="#EFB113"/>
<path d="M51.7455 95.8553C50.8245 94.3764 50.0158 92.8547 49.5007 91.191C49.1934 90.1995 48.8902 89.2028 48.6615 88.1915C48.415 87.0883 48.1423 85.9705 48.0898 84.8517C47.9849 82.6777 47.8475 80.4849 48.4549 78.3485C48.7329 77.3685 49.0234 76.3885 49.3937 75.4408C49.5091 75.1433 49.4776 74.993 49.3308 74.7634C48.6846 73.7511 47.9818 72.7658 47.4363 71.7013C46.767 70.3935 46.2331 69.0169 45.6247 67.6309C45.5198 67.7353 45.4149 67.8396 45.3289 67.9523C44.4226 69.0931 43.6054 70.3194 42.6015 71.3631C40.5581 73.4766 38.4402 75.517 36.295 77.5282C35.6289 78.1544 34.8432 78.7305 34.0061 79.0832C32.698 79.6227 31.3476 80.0545 29.9685 80.3743C28.7458 80.6741 27.4984 80.8641 26.2415 80.942C24.4372 81.0464 22.6665 80.7594 20.942 80.177C19.695 79.773 18.5195 79.1768 17.4583 78.4101C14.1613 75.9689 12.3445 72.6416 11.8148 68.6328C11.5811 66.9167 11.7543 65.17 12.3204 63.5323C12.8365 62.0336 13.5865 60.7144 14.7813 59.6832C16.6474 58.0718 18.8063 57.3308 21.305 57.5645C22.4707 57.6533 23.5756 58.1179 24.4519 58.8879C26.3506 60.5672 26.938 62.6964 26.2352 65.1083C25.6887 66.9869 24.2893 68.0306 22.419 68.4596C21.7896 68.6057 21.1382 68.6683 20.4374 68.7821C20.5575 68.9672 20.6896 69.1443 20.8329 69.3123C21.7455 70.261 22.912 70.7734 24.1792 70.9258C25.7369 71.1189 27.3083 71.0427 28.8105 70.5083C30.8717 69.7715 32.6214 68.5869 33.919 66.8053C34.9764 65.3525 35.6341 63.7338 35.6677 61.9303C35.6902 60.8263 35.6201 59.7225 35.4579 58.6302C35.323 57.773 35.0787 56.9366 34.731 56.141C33.8603 54.1277 32.462 52.5298 30.6514 51.2753C29.2647 50.3162 27.7478 49.6054 26.1083 49.309C24.7876 49.069 23.4113 49.095 22.0592 49.0763C21.5745 49.07 21.0815 49.2579 20.6032 49.3956C20.1248 49.5334 19.6591 49.7192 19.0863 49.9175C19.251 49.619 19.3507 49.429 19.4587 49.2443C20.2707 47.8593 21.1119 46.4911 21.8882 45.0863C23.0494 42.9832 23.6075 40.709 23.7218 38.3169C23.8057 36.5604 23.7092 34.8091 23.2508 33.1162C22.8573 31.7293 22.3809 30.3669 21.8242 29.0365C21.1602 27.3989 20.2507 25.8981 18.8933 24.7198C18.5482 24.4192 18.137 24.198 17.6482 23.8608C17.6482 24.3722 17.6482 24.7135 17.6482 25.0559C17.6545 26.1089 17.6671 27.162 17.6671 28.2161C17.6721 29.8895 17.4544 31.5561 17.0198 33.1726C16.6684 34.472 16.4177 35.8194 15.888 37.0457C14.9785 39.1498 13.9662 41.2204 12.8522 43.2243C11.3343 45.9598 9.62027 48.5878 8.10553 51.3254C7.11631 53.1209 6.24045 54.976 5.48306 56.8799C4.91031 58.3118 4.5631 59.8387 4.18756 61.3416C3.69991 63.3418 3.49896 65.4005 3.59069 67.4566C3.61901 68.1966 3.70293 68.9345 3.78265 69.6723C3.84769 70.2714 3.87916 70.8851 4.03861 71.4612C4.40575 72.7773 4.78234 74.0903 5.24494 75.3719C5.96245 77.3549 7.0492 79.1427 8.35309 80.8085C10.0587 83.0095 12.2235 84.8165 14.6984 86.1052C16.3883 86.986 18.1601 87.6237 20.0588 87.8972C20.6284 87.9786 21.1948 88.0819 21.7623 88.1748C20.5581 88.5422 19.3381 88.801 18.1307 89.1141C16.8037 89.4554 15.4464 89.7403 14.1792 90.2392C12.7987 90.785 11.4749 91.5 10.1815 92.2368C7.7772 93.6092 5.86385 95.539 4.20225 97.7193C2.56792 99.8484 1.3532 102.23 0.0755272 104.572C0.0188818 104.676 0.0293717 104.815 0 104.99C0.890591 104.676 1.69307 104.347 2.51757 104.098C4.13721 103.613 5.7558 103.113 7.40166 102.73C8.45904 102.484 9.55943 102.393 10.6472 102.313C12.0885 102.201 13.5361 102.133 14.9817 102.104C17.8548 102.045 20.7333 102.104 23.5834 101.669C24.8264 101.478 26.0653 101.263 27.3041 101.05C28.7979 100.793 30.1941 100.254 31.5462 99.5833C34.5747 98.0804 36.9443 95.9221 38.4265 92.8515C38.8346 92.0061 39.3077 91.1921 39.8196 90.235C39.9455 90.4761 40.0294 90.5794 40.0514 90.6932C40.1993 91.5918 40.2822 92.504 40.4836 93.389C40.7983 94.7656 41.0973 96.1558 41.563 97.4855C42.3214 99.6511 43.7197 101.381 45.6278 102.673C46.9366 103.551 48.4247 104.131 49.9853 104.37C51.3836 104.595 52.7851 104.833 54.196 104.945C55.0677 105.015 55.9572 104.84 56.8394 104.812C58.0667 104.775 59.2143 104.446 60.3137 103.939C60.9011 103.667 61.4802 103.36 61.8274 102.791C60.7585 102.457 59.657 102.269 58.7119 101.787C55.9363 100.359 53.4397 98.5741 51.7455 95.8553Z" fill="#EFB113"/>
<path d="M103.422 67.9356C103.653 67.2907 103.895 66.7208 104.058 66.128C104.352 65.0593 104.635 63.9832 104.844 62.8926C104.913 62.5419 105.188 62.0837 104.707 61.7664C103.591 61.0296 102.482 60.2844 101.359 59.559C99.2606 58.2022 96.9665 57.3026 94.4898 57.0271C92.2777 56.7688 90.0355 57.0235 87.9389 57.7712C85.8799 58.5016 83.9997 59.6576 82.4222 61.1632C80.7439 62.7569 79.4935 64.648 78.5735 66.8523C78.4508 66.7208 78.3301 66.6436 78.2861 66.5392C77.5518 64.7524 76.4808 63.1785 75.1716 61.7643C73.5447 60.0078 71.6051 58.6698 69.3508 57.8777C68.1008 57.4424 66.8032 57.1565 65.4853 57.026C64.3251 56.9112 63.1188 57.0083 61.9607 57.1878C60.7669 57.3715 59.5564 57.647 58.4413 58.0968C56.2154 58.9965 54.2527 60.3815 52.3006 61.7591C52.2327 61.8249 52.1809 61.9053 52.1493 61.9942C52.1176 62.083 52.1069 62.178 52.118 62.2716C52.353 63.4635 52.5995 64.6553 52.8869 65.8358C53.0548 66.5225 53.3065 67.1925 53.5426 67.9398C53.7209 67.7979 53.8163 67.7311 53.8971 67.6559C54.4741 67.0903 54.9933 66.4474 55.6353 65.9673C57.7333 64.4017 60.0001 63.1493 62.5922 62.5836C63.617 62.3613 64.6576 62.0795 65.6919 62.0743C66.8458 62.0743 68.0228 62.257 69.0928 62.8237C71.0764 63.8747 72.161 65.4903 72.1558 67.7353C72.1558 68.4011 71.9649 69.0847 71.7635 69.7297C71.1855 71.576 69.0225 72.5884 67.2224 71.9371C66.2154 71.5729 65.3447 71.0531 64.7342 70.1524C64.0681 70.9509 64.2328 73.9702 65.9364 75.8343C66.7755 76.7558 67.8088 77.4374 69.0529 77.6085C71.0397 77.8809 72.6268 77.0032 73.9674 75.6182C74.0262 75.6861 74.065 75.7101 74.066 75.7372C74.0765 75.8927 74.0755 76.0503 74.0828 76.2037C74.1499 77.5605 73.5856 78.91 74.0545 80.2647C74.2863 80.9337 74.4111 81.6914 74.8171 82.2362C75.8965 83.6859 77.107 85.0375 78.2536 86.4381C78.4634 86.6938 78.6018 86.626 78.7781 86.4235C79.2732 85.8672 79.7924 85.3328 80.2729 84.764C81.2316 83.6316 82.2576 82.5566 82.7317 81.0809C83.1513 79.7763 83.1618 78.4904 82.9415 77.1629C82.8576 76.6546 82.9279 76.1192 82.9279 75.5285C83.7293 76.3331 84.5475 76.951 85.5377 77.3299C86.6377 77.771 87.8687 77.7601 88.9606 77.2996C90.5341 76.6629 91.5348 75.5076 92.1726 73.9598C92.6835 72.7199 92.6897 71.4769 92.459 70.1733C92.4012 70.1882 92.3447 70.2077 92.2901 70.2318C92.2262 70.2601 92.1685 70.3005 92.1201 70.3507C91.5086 71.1158 90.7449 71.6877 89.7861 71.8923C88.7917 72.101 87.7931 72.2127 86.8186 71.6773C85.0416 70.6983 84.3902 67.9534 85.0447 66.0935C85.6531 64.3631 86.8353 63.2025 88.583 62.545C90.1239 61.9668 91.6932 61.9783 93.2373 62.2695C94.4961 62.5074 95.7182 63.0001 96.935 63.4332C98.6228 64.0406 100.137 64.9778 101.526 66.0946C102.184 66.6185 102.737 67.2604 103.422 67.9356Z" fill="#EFB113"/>
</svg>
