<svg width="320" height="653" viewBox="0 0 320 653" fill="none" xmlns="http://www.w3.org/2000/svg">
<path d="M598.534 292.338C592.436 282.568 584.449 274.493 575.388 267.442C566.532 260.562 557.048 254.707 546.59 250.658C538.31 247.446 529.871 244.575 521.355 242.019C516.66 240.613 511.725 239.992 506.854 239.359C497.235 238.122 487.611 236.593 477.951 236.153C464.031 235.52 450.081 235.69 436.284 238.14C432.275 238.855 428.132 238.861 424.171 239.751C416.964 241.369 409.781 243.18 402.721 245.348C396.43 247.282 390.291 249.744 384.129 252.099C381.16 253.231 378.26 254.643 375.379 255.926C375.315 254.924 375.554 253.925 376.066 253.061C378.812 247.311 381.981 241.715 384.176 235.76C386.679 228.825 388.749 221.742 390.373 214.551C391.968 208.088 393.034 201.507 393.56 194.872C394.194 185.284 394.346 175.596 391.441 166.237C389.828 161.033 388.554 155.612 386.119 150.795C378.947 136.595 368.366 125.278 354.874 116.804C340.602 107.872 325.061 103.125 308.095 103.629C306.062 103.731 304.047 104.058 302.086 104.602C297.08 105.885 291.868 106.759 287.174 108.798C276.023 113.61 266.733 121 259.133 130.482C252.678 138.511 247.801 147.448 246.181 157.581C244.914 165.499 245.008 173.692 248.341 181.351C251.117 187.728 254.714 193.658 259.972 198.3C268.065 205.479 277.379 208.345 288.036 205.292C291.07 204.424 293.958 203.012 296.91 201.851C296.998 201.476 297.092 201.101 297.18 200.72C296.516 200.316 295.677 200.052 295.219 199.484C291.44 194.795 287.179 190.423 284.139 185.307C279.568 177.618 278.4 169.349 282.843 160.898C288.623 149.898 305.689 137.397 322.696 140.738C328.248 141.828 333.207 143.885 337.409 147.431C348.066 156.438 353.471 168.394 356.417 181.779C357.996 188.929 357.456 195.715 355.291 202.619C351.541 214.575 343.671 223.172 333.729 230.298C327.149 235.06 319.894 238.813 312.203 241.433C305.655 243.699 298.901 245.326 292.039 246.292C285.3 247.254 278.471 247.425 271.692 246.802C264.207 246.087 256.873 244.25 249.937 241.351C234.374 234.746 222.102 224.045 213.012 209.804C204.285 196.137 199.848 181.047 199.033 164.954C198.763 159.556 199.62 154.106 199.925 148.679C200.365 141.219 202.301 134.104 204.62 126.995C208.041 116.446 213.651 107.216 220.747 98.8646C228.247 90.0445 236.844 82.3379 246.792 76.3837C254.55 71.7421 262.555 67.4698 270.665 63.4905C276.534 60.6071 282.754 58.4505 289.016 55.8718C288.142 55.2389 287.414 54.647 286.622 54.1547C276.804 48.0012 265.724 46.1141 254.503 45.0123C249.168 44.4907 243.752 44.8658 238.37 44.813C230.688 44.7427 223.47 46.917 216.597 49.9527C203.945 55.573 193.141 63.7777 183.622 73.7406C180.652 76.8525 177.753 80.0289 174.602 83.3928C174.496 82.6896 174.343 82.3731 174.425 82.127C176.403 76.2664 178.598 70.4469 180.353 64.5102C182.395 57.6183 184.396 50.6736 185.781 43.6292C187.325 35.7586 188.78 27.7765 189.138 19.7945C189.561 10.4177 188.927 0.947098 188.434 -8.46489C188.017 -16.3121 185.453 -23.6729 182.565 -30.9341C177.911 -42.5616 171.146 -53.2308 162.612 -62.4051C160.675 -64.509 159.637 -64.5383 157.641 -62.452C149.149 -53.5791 142.841 -43.3291 138.011 -32.1472C134.413 -23.8194 131.555 -15.0345 131.174 -6.07381C130.675 6.15123 131.684 18.4407 132.189 30.6951C132.362 33.5982 132.788 36.4808 133.462 39.31C134.824 45.4987 136.191 51.6992 137.876 57.8058C139.519 63.7835 141.538 69.6617 143.427 75.5749C144.226 78.0598 145.112 80.5212 145.957 82.9884C145.413 82.9715 144.898 82.7396 144.525 82.3438C144.019 81.9134 143.544 81.4473 143.105 80.949C135.572 71.5467 126.557 63.4313 116.414 56.9209C104.718 49.3315 92.1121 44.0277 77.7163 44.8189C71.7949 45.1354 65.8793 45.5515 59.9637 45.9207C53.1345 46.4219 46.4396 48.0745 40.163 50.8084C37.0233 52.127 34.1066 53.9848 30.7732 55.7664C37.7275 58.5618 43.9776 60.9529 50.1396 63.5843C62.1043 68.6824 73.317 75.3861 83.4676 83.51C99.4772 96.3387 112.007 111.705 116.983 132.076C118.906 139.833 120.31 147.71 121.185 155.653C121.713 160.699 120.634 165.903 120.44 171.043C120.135 178.949 118.092 186.514 115.281 193.764C108.527 211.123 97.4701 225.159 81.6483 235.333C73.1969 240.836 63.6955 244.532 53.743 246.186C47.4988 247.206 40.9905 246.678 34.5995 246.661C24.9222 246.632 15.7495 244.158 6.73529 240.8C-7.1088 235.649 -19.3273 228.189 -28.2359 216.092C-33.5176 208.902 -36.6984 200.914 -37.0388 191.894C-37.3146 185.219 -35.9355 178.89 -33.635 172.643C-30.8122 164.971 -27.2793 157.745 -21.6924 151.691C-12.7603 142.016 -1.77423 137.948 11.172 141.142C21.354 143.645 29.6171 149.494 35.7146 158.097C40.0984 164.274 41.2898 171.242 39.1653 178.439C37.2454 184.68 33.8658 190.375 29.306 195.053C27.3107 197.169 25.2978 199.267 22.6275 202.086C27.1405 203.416 30.9903 204.459 34.7815 205.684C41.0081 207.683 46.9002 206.346 52.3874 203.557C64.8112 197.251 71.5954 186.339 74.1013 173.246C76.0614 162.961 74.1013 152.734 69.1482 143.164C63.2473 131.73 54.5588 121.963 43.8837 114.764C33.8112 107.75 21.8824 103.875 9.60507 103.629C6.13672 103.553 2.66248 104.315 -0.817627 104.538C-8.92221 105.053 -16.5103 107.655 -23.7464 110.949C-39.932 118.316 -53.0191 129.486 -62.4793 144.623C-69.0026 155.003 -72.7396 166.884 -73.3304 179.124C-74.0757 193.149 -72.7905 206.95 -68.8761 220.546C-66.1472 230.035 -63.0779 239.3 -58.4182 248.044C-57.1036 250.494 -55.8536 252.979 -54.3102 255.915C-55.0825 255.822 -55.8473 255.675 -56.5989 255.475C-65.9887 251.76 -75.2201 247.505 -84.827 244.457C-93.3365 241.762 -102.204 239.992 -111.03 238.597C-119.552 237.231 -128.214 236.604 -136.852 236.112C-143.672 235.725 -150.544 235.866 -157.393 236.112C-163.528 236.226 -169.652 236.676 -175.738 237.46C-183.655 238.591 -191.554 240.05 -199.336 241.885C-206.535 243.52 -213.625 245.607 -220.563 248.132C-231.307 252.11 -241.468 257.508 -250.774 264.184C-260.229 270.953 -268.908 278.56 -275.569 288.235C-276.843 290.081 -278.503 291.664 -280 293.363V295.708C-279.266 296.294 -278.374 296.798 -277.829 297.536C-276.35 299.529 -275.17 301.75 -273.603 303.666C-264.881 314.227 -254.396 323.203 -242.611 330.197C-232.288 336.386 -221.222 341.246 -209.676 344.66C-201.996 346.872 -194.172 348.55 -186.26 349.683C-176.683 351.16 -167.023 352.496 -157.357 352.895C-147.839 353.287 -138.261 352.549 -128.724 352.097C-123.09 351.834 -117.48 351.218 -111.87 350.644C-109.264 350.401 -106.677 349.98 -104.129 349.384C-96.9516 347.626 -89.698 346.026 -82.685 343.729C-74.7271 341.121 -66.9923 337.827 -59.1635 334.821C-57.7668 334.287 -56.3759 333.719 -54.5332 332.986C-54.809 333.965 -54.8559 334.246 -54.9675 334.498C-58.4006 342.023 -62.1389 349.431 -65.1847 357.108C-67.2974 362.418 -68.7059 368.038 -69.9735 373.629C-71.3703 379.824 -72.9079 386.112 -73.1661 392.383C-73.517 400.833 -73.1617 409.297 -72.1039 417.688C-71.2951 423.984 -69.5649 430.127 -66.9688 435.92C-60.0262 451.263 -48.8876 463.131 -34.6913 472.179C-22.4283 480.033 -8.34332 484.593 6.20123 485.418C9.8905 485.573 13.5844 485.255 17.1932 484.475C22.475 483.432 27.8741 482.506 32.745 480.419C43.1677 475.954 51.9178 469.067 59.4004 460.447C66.8829 451.826 72.2761 442.203 74.1306 431.144C76.4135 417.507 72.9569 404.953 63.6962 394.34C55.128 384.506 44.6115 380.275 31.6711 383.838C28.7368 384.647 25.9962 386.182 23.0149 387.431C25.779 390.361 28.2203 392.705 30.3096 395.295C32.4792 397.931 34.432 400.738 36.1489 403.688C40.4975 411.4 41.8766 419.646 37.5867 427.657C31.2427 439.501 15.7554 450.789 -1.44559 448.362C-11.9563 446.88 -19.3918 441.089 -25.2194 432.926C-30.6915 425.18 -34.4431 416.357 -36.2231 407.046C-38.1304 397.604 -36.8099 388.808 -32.7019 380.322C-28.4354 371.443 -21.8449 364.498 -13.8108 358.902C-4.0806 352.092 6.48294 347.081 18.1674 344.836C25.5677 343.418 31.7274 341.407 40.5562 341.642C43.8477 341.73 45.6899 341.961 48.9542 342.392C57.5209 343.525 63.6258 344.842 70.4334 347.708C84.4007 353.609 95.7037 363.027 104.589 375.317C115.152 389.898 120.141 406.424 121.291 424.158C121.614 429.152 120.704 434.221 120.452 439.261C120.076 447.032 118.104 454.451 115.716 461.795C112.089 472.859 106.126 482.588 98.5324 491.296C89.8791 501.237 79.5708 509.61 68.0625 516.045C60.2513 520.423 52.0528 524.133 43.9306 527.93C39.8226 529.841 35.5385 531.294 31.4246 532.918C31.8188 533.444 32.2482 533.944 32.7098 534.412C32.9915 534.658 33.4376 534.705 33.7603 534.91C43.4025 540.994 54.3475 543.027 65.3453 543.883C73.6201 544.522 82.0826 543.842 90.3633 542.922C95.0171 542.406 99.6533 540.578 103.996 538.696C119.513 531.88 132.13 521.25 142.887 508.298C143.784 507.354 144.74 506.469 145.751 505.649C145.863 506.299 145.974 506.522 145.916 506.669C140.986 518.725 137.219 531.224 134.666 543.994C133.011 551.935 131.549 560.023 131.209 568.099C130.786 578.173 131.438 588.306 131.942 598.403C132.324 606.057 135.006 613.195 137.811 620.251C142.384 631.807 149.125 642.385 157.671 651.417C159.607 653.469 160.605 653.586 162.612 651.417C170.254 643.144 176.524 633.705 181.186 623.457C185.511 614.145 188.604 604.27 189.132 594.154C189.719 582.433 188.616 570.619 188.111 558.851C187.954 556.143 187.561 553.455 186.937 550.816C185.558 544.528 184.191 538.227 182.501 532.021C180.811 525.815 178.71 519.591 176.767 513.391C175.998 510.958 175.153 508.544 174.349 506.124C174.938 506.144 175.495 506.392 175.904 506.815C176.309 507.214 176.697 507.636 177.078 508.075C186.274 519.058 196.861 528.423 209.426 535.42C219.403 540.976 229.908 544.727 241.545 544.211C247.66 543.947 253.769 543.478 259.884 543.133C266.985 542.734 273.74 540.788 280.266 538.175C283.341 536.938 286.135 535.033 289.433 533.228C287.755 532.414 286.833 531.886 285.853 531.47C279.28 528.851 272.567 526.547 266.152 523.6C254.949 518.454 244.46 511.88 234.949 504.043C227.462 497.991 220.854 490.93 215.312 483.062C209.05 474.002 204.256 464.279 202.278 453.373C201.004 446.34 199.619 439.308 199.097 432.217C198.71 426.942 199.684 421.574 199.972 416.241C200.377 408.745 202.46 401.59 205.171 394.733C210.453 381.377 218.381 369.767 229.426 360.384C240.23 351.207 252.619 345.082 266.534 342.885C273.024 341.859 279.697 341.279 286.563 342.146C295.912 343.318 304.979 345.018 313.794 348.306C327.767 353.516 340.038 361.199 348.9 373.377C354.292 380.587 357.281 389.305 357.444 398.302C357.556 404.701 356.024 410.749 353.865 416.663C351.142 424.123 347.626 431.156 342.215 437.116C333.254 446.985 322.151 450.929 309.21 447.911C298.588 445.432 290.061 439.214 283.975 430.095C281.111 425.793 279.415 420.8 280.143 415.561C281.205 407.907 284.591 401.168 289.691 395.354C291.998 392.728 294.486 390.255 297.608 386.962C293.025 385.614 289.145 384.653 285.401 383.322C280.384 381.564 275.325 382.344 270.847 384.125C256.71 389.74 249.022 401.232 246.234 415.497C244.192 425.94 246.117 436.348 251.187 446.106C257.249 457.768 265.771 467.057 276.534 474.43C286.492 481.256 298.21 485.071 310.284 485.418C313.747 485.547 317.233 484.774 320.713 484.545C328.929 484.012 336.623 481.468 343.953 478.099C355.648 472.75 366.078 464.99 374.557 455.33C385.491 442.988 391.864 428.624 393.425 412.437C394.229 404.098 393.425 395.524 392.592 387.126C391.93 380.315 390.665 373.577 388.812 366.989C386.078 357.272 382.756 347.696 377.597 338.9C376.594 337.188 375.79 335.383 374.898 333.578L375.485 333.145L377.245 333.836C386.67 337.499 395.949 341.625 405.573 344.66C413.155 347.057 421.119 348.423 429.001 349.659C438.285 351.113 447.651 352.549 457.018 352.859C467.71 353.217 478.456 352.414 489.166 351.933C494.113 351.711 499.113 351.447 503.955 350.515C511.977 348.974 520 347.233 527.828 344.912C535.35 342.761 542.702 340.056 549.824 336.819C556.94 333.402 563.804 329.485 570.364 325.098C581.647 317.78 591.223 308.125 598.44 296.786C598.791 296.1 598.983 295.343 598.999 294.573C599.015 293.802 598.856 293.038 598.534 292.338Z" fill="#EFB113"/>
</svg>
