<svg width="200" height="66" viewBox="0 0 200 66" fill="none" xmlns="http://www.w3.org/2000/svg">
<path d="M100.424 65.7659C101.113 64.9598 101.853 64.1893 102.482 63.3382C104.525 60.5828 104.444 57.5294 103.64 54.3901C103.504 53.8805 103.41 53.3627 103.272 52.7439C104.185 53.5799 104.937 54.3463 105.769 55.0103C106.795 55.83 107.879 56.5649 109.241 56.7357C110.73 56.9215 112.043 56.4871 113.192 55.5704C113.931 54.9775 114.531 54.2412 114.757 53.248C114.295 53.1278 113.911 53.0007 113.516 52.931C111.896 52.6455 110.465 51.9652 109.293 50.8149C108.28 49.8162 107.795 48.569 107.533 47.1455C107.212 45.3613 107.473 43.7465 108.404 42.2424C109.886 39.8257 113.501 39.4364 115.817 40.7533C117.829 41.8954 118.533 44.3053 117.755 46.405C117.45 47.2247 116.965 47.9856 116.573 48.7534C118.15 48.9938 119.842 48.8231 120.824 48.166C123.055 46.681 123.42 44.4255 123.077 41.7888C123.403 42.0293 123.533 42.1058 123.641 42.2082C124.469 42.9979 125.288 43.7971 126.117 44.584C128.629 46.9679 131.317 49.1168 134.311 50.8682C136.364 52.0731 138.558 52.8914 140.909 53.1086C143.385 53.3368 145.877 53.2452 148.25 52.3614C149.969 51.7165 151.714 51.1004 153.344 50.2657C156.801 48.4897 159.68 45.8941 162.64 43.42C164.699 41.7028 166.718 39.9391 168.761 38.2055C168.917 38.0689 169.129 38.0019 169.428 37.8421C169.367 38.5497 169.235 39.1317 169.292 39.6973C169.384 40.5912 169.538 41.4777 169.752 42.3503C170.434 45.2192 172.954 46.487 175.678 45.9392C175.591 45.4829 175.562 45.0061 175.406 44.573C174.968 43.3681 175.181 42.1768 175.555 41.0498C176.249 38.9555 177.937 38.0046 179.993 37.8913C181.717 37.797 183.464 37.9773 185.19 38.1426C186.104 38.2278 187.001 38.4421 187.855 38.7792C190.346 39.7765 191.91 41.7315 192.895 44.1509C193.43 45.4946 193.871 46.8741 194.215 48.2793C194.469 49.2876 194.644 50.3286 194.13 51.3723C193.408 52.8409 192.192 53.4584 190.666 53.7726C188.842 54.1496 187.341 53.5239 186.215 52.2343C184.547 50.3286 184.288 48.1127 185.405 45.7848C185.505 45.5785 185.525 45.3353 185.596 45.0498C184.339 44.8941 183.237 45.1386 182.14 45.4897C179.177 46.4364 178.758 49.5102 179.474 51.7944C179.899 53.1469 180.726 54.3723 181.362 55.6592C181.419 55.8173 181.456 55.9814 181.474 56.1483L181.316 56.2849C180.545 55.7521 179.741 55.2617 179.011 54.6783C177.352 53.3545 175.818 51.8832 173.629 51.3764C172.365 51.084 170.488 51.5553 169.851 52.6196C169.191 53.7234 169.469 54.8259 169.909 55.9133C170.124 56.4461 170.375 56.9639 170.647 57.5759C170.416 57.5796 170.185 57.5664 169.955 57.5363C168.829 57.263 167.715 56.9283 166.579 56.7043C165.061 56.4065 163.535 56.0759 161.999 55.972C160.683 55.8819 159.347 56.0813 158.02 56.1729C156.444 56.2835 155.135 57.0117 153.958 58.0117C152.459 59.2904 151.506 60.9612 150.732 62.7358C150.438 63.4093 150.279 64.1415 150.031 64.9339C150.2 64.9455 150.37 64.9455 150.539 64.9339C151.94 64.6484 153.341 64.3478 154.744 64.0719C156.633 63.7016 158.523 63.3382 160.416 62.994C161.145 62.8574 161.883 62.7645 162.621 62.6934C164.281 62.5336 165.941 62.3615 167.604 62.274C168.364 62.2344 169.134 62.3997 169.901 62.4462C171.865 62.5664 173.831 62.6716 175.795 62.7822C175.841 62.7822 175.886 62.7891 175.931 62.7918C177.889 62.9503 179.844 63.1907 181.804 63.2413C183.499 63.2637 185.194 63.1871 186.881 63.0117C187.929 62.9271 188.964 62.7152 189.962 62.3806C192.235 61.5705 194.142 60.1879 195.813 58.4174C198.045 56.0472 199.604 53.3764 199.939 50.084C200.125 48.2356 199.872 46.4077 199.375 44.6482C198.74 42.3981 197.518 40.4446 195.969 38.6823C194.033 36.4534 191.696 34.6103 189.079 33.2491C188.962 33.189 188.807 33.0456 188.807 32.9541C188.807 32.8625 188.972 32.7232 189.091 32.6603C192.092 31.1138 194.713 28.9173 196.763 26.2299C199.264 22.9376 200.377 19.3146 199.771 15.1643C199.495 13.2626 198.91 11.5317 197.805 9.97294C196.588 8.26118 195.217 6.67236 193.536 5.42098C190.832 3.4155 187.695 2.69964 184.395 2.66412C182.77 2.64636 181.14 2.76658 179.517 2.87314C177.127 3.02888 174.749 3.25156 172.354 3.40184C170.41 3.52479 168.464 3.61495 166.517 3.6532C165.665 3.6696 164.806 3.53025 163.952 3.44692C162.988 3.35265 162.023 3.25429 161.063 3.13271C160.461 3.0562 159.864 2.94418 159.269 2.82533C158.089 2.58944 156.908 2.34445 155.727 2.09035C154.614 1.84991 153.506 1.58488 152.391 1.34854C151.663 1.19416 150.926 1.07531 150.136 0.920935C150.131 1.14936 150.144 1.37781 150.176 1.604C150.224 1.79526 150.348 1.96739 150.403 2.15865C150.909 3.91294 151.787 5.53691 152.977 6.91963C154.327 8.49615 156.024 9.44561 158.14 9.80217C160.423 10.1861 162.649 9.91283 164.877 9.61911C166.286 9.43332 167.656 8.9702 169.044 8.63686C169.532 8.51937 170.024 8.41555 170.627 8.2803C170.28 9.19288 169.972 9.96475 169.693 10.7462C168.909 12.932 170.303 14.5112 172.332 14.6137C174.418 14.7175 176.08 13.6847 177.625 12.4101C178.477 11.7038 179.34 11.0071 180.221 10.3391C180.572 10.0658 180.988 9.89234 181.375 9.67239L181.534 9.83633C181.3 10.268 181.078 10.7079 180.827 11.1314C179.746 12.9634 178.861 14.8377 179.28 17.07C179.481 18.1452 179.924 19.1042 180.803 19.7258C182.226 20.734 183.873 20.9908 185.681 20.8733C185.563 20.5659 185.48 20.32 185.38 20.0823C184.764 18.6342 184.461 17.1561 185.042 15.6246C186.26 12.4197 189.375 11.0918 192.474 12.7394C193.743 13.4224 194.758 15.2312 194.469 16.3473C194.061 17.902 193.652 19.4566 193.186 20.9922C192.71 22.4745 191.928 23.84 190.892 25.0004C189.029 27.1493 186.449 27.6903 183.821 28.0059C182.568 28.1562 181.281 28.0811 180.007 28.0305C178.942 27.9895 177.992 27.5647 177.085 26.9936C175.574 26.0455 174.809 23.0318 175.37 21.4171C175.535 20.9444 175.584 20.4293 175.692 19.9047C174.52 19.7681 173.424 19.8105 172.356 20.2873C170.439 21.1438 169.738 22.7955 169.495 24.7026C169.368 25.6971 169.443 26.7163 169.421 27.7245C169.4 27.8308 169.366 27.9341 169.319 28.0319C169.132 27.9414 168.953 27.8364 168.783 27.7177C166.922 26.1411 165.087 24.5359 163.206 22.984C161.036 21.193 158.886 19.3706 156.625 17.7025C153.142 15.1315 149.276 13.3391 144.951 12.8022C142.338 12.4771 139.7 12.6929 137.222 13.6383C134.752 14.585 132.461 15.9444 130.444 17.6588C128.136 19.6137 125.919 21.6739 123.659 23.6848C123.535 23.7941 123.386 23.8747 123.07 24.0947C123.3 21.9949 123.246 20.1097 121.81 18.5796C120.312 16.9812 118.433 16.9716 116.361 17.1697C117.683 18.5208 118.218 20.0536 118.019 21.8228C117.864 23.2135 117.179 24.2818 116.014 25.0537C114.809 25.8488 113.46 25.9881 112.076 25.8556C110.368 25.6835 108.995 24.8638 108.188 23.3611C107.406 21.8843 107.22 20.3091 107.544 18.596C108.019 16.0796 109.439 14.4716 111.714 13.5522C112.667 13.1642 113.7 12.947 114.694 12.6519C114.344 10.865 112.312 9.44971 110.67 9.19424C108.72 8.88003 107.156 9.75436 105.73 10.9429C104.912 11.626 104.149 12.3705 103.278 13.1656C103.486 12.1956 103.678 11.3145 103.865 10.4333C104.222 8.75571 104.305 7.07537 103.842 5.40732C103.252 3.28435 102.003 1.58214 100.38 0.143602C100.244 0.0165519 99.8476 -0.0503887 99.7346 0.0452407C97.8847 1.62722 96.4544 3.5726 96.0022 5.9565C95.5935 8.13412 95.8755 10.3705 96.6206 12.5017C96.6697 12.708 96.7048 12.9175 96.7255 13.1287C96.4531 12.9101 96.31 12.8104 96.1806 12.6943C95.4423 12.0221 94.7653 11.2612 93.9548 10.6929C93.1089 10.1014 92.184 9.47976 91.2059 9.25435C89.3206 8.81855 87.6193 9.42648 86.2911 10.8705C85.8334 11.3719 85.3376 11.9101 85.2831 12.6847C85.6456 12.8004 86.0139 12.8971 86.3865 12.9743C88.0061 13.2018 89.5131 13.935 90.6937 15.07C91.699 16.0345 92.2071 17.2695 92.4741 18.6588C92.8242 20.4758 92.5926 22.1589 91.6009 23.6889C90.0208 26.1288 87.024 26.3365 84.8186 25.4799C82.1146 24.4321 81.2319 21.3884 82.492 18.8774C82.7889 18.2845 83.1731 17.7339 83.5313 17.1369C82.0329 17.0399 80.5168 16.9033 79.1887 17.7613C76.9288 19.2203 76.6005 21.4922 76.8294 23.9854C75.7641 23.0851 74.8228 22.2094 73.8857 21.32C71.367 18.9402 68.6848 16.7749 65.6798 15.0358C63.1121 13.5467 60.3673 12.7271 57.38 12.7257C55.4729 12.7257 53.5999 12.8937 51.8046 13.5454C50.2271 14.1151 48.6497 14.7093 47.1364 15.4265C44.0224 16.902 41.4151 19.1247 38.7793 21.3009C36.2375 23.4048 33.7556 25.5797 31.2423 27.7149C31.0884 27.8515 30.8854 27.9185 30.583 28.0851C30.6484 27.5674 30.7669 27.189 30.7274 26.8283C30.6021 25.7122 30.5026 24.5824 30.237 23.4949C29.5437 20.6616 27.0263 19.4307 24.3142 19.973C24.415 20.4485 24.5076 20.9293 24.6193 21.3965C25.0552 23.2545 24.7447 24.9485 23.5187 26.4349C22.6374 27.4991 21.3937 27.9663 20.1023 28.0141C18.4187 28.0769 16.72 27.9417 15.0391 27.7791C14.0573 27.6996 13.0913 27.4835 12.1689 27.137C9.65159 26.137 8.08235 24.1589 7.09613 21.708C6.56032 20.3389 6.11929 18.9344 5.77618 17.5044C5.54188 16.5604 5.43018 15.5673 5.85654 14.6014C6.71336 12.667 8.43652 12.0973 10.2782 12.0221C10.9081 12.0058 11.534 12.1285 12.1114 12.3816C12.6888 12.6347 13.2037 13.0119 13.6197 13.4866C15.3565 15.3992 15.7651 17.6547 14.6032 20.1315C14.5051 20.3392 14.4778 20.5796 14.3661 21.0031C15.4967 20.8665 16.5034 20.8665 17.4379 20.6042C20.7194 19.6875 21.3692 16.611 20.5369 14.0946C20.0901 12.7448 19.2741 11.5194 18.6298 10.2325C18.5704 10.0603 18.5302 9.8821 18.5099 9.70107C18.7265 9.74752 18.8586 9.73659 18.939 9.79807C20.086 10.6615 21.2466 11.5085 22.3595 12.4142C23.9519 13.7066 25.6451 14.7544 27.7837 14.6246C29.1772 14.5399 30.6824 13.5645 30.4931 11.8322C30.4067 11.1949 30.2551 10.5682 30.0409 9.96201C29.8733 9.44288 29.609 8.95653 29.3516 8.37592C29.624 8.37592 29.8052 8.34177 29.97 8.37592C31.1184 8.64915 32.2531 8.99205 33.4109 9.21746C34.9502 9.51801 36.4976 9.84452 38.056 9.94971C39.3719 10.0385 40.7068 9.83222 42.0336 9.74479C43.5633 9.6437 44.8506 8.93467 45.9839 7.98111C47.5 6.70241 48.4904 5.01797 49.2614 3.21194C49.5529 2.52887 49.719 1.79799 49.9806 0.970111C49.4902 1.00153 49.1715 0.979674 48.8731 1.04935C47.4837 1.37312 46.1079 1.76384 44.7103 2.05346C42.7801 2.45373 40.8471 2.87314 38.8937 3.12177C36.7469 3.395 34.5797 3.53161 32.4165 3.6532C31.6346 3.69828 30.8418 3.53708 30.0545 3.47423C28.9747 3.38953 27.8945 3.30757 26.8138 3.22833C24.1984 3.0398 21.5871 2.8021 18.969 2.68188C16.4857 2.57122 14.0038 2.57532 11.5505 3.14909C9.95192 3.50984 8.42989 4.15232 7.05527 5.04665C5.30893 6.19694 3.98897 7.76116 2.66493 9.35817C0.970367 11.4074 0.341033 13.7872 0.0549767 16.3173C-0.131638 17.9785 0.181655 19.626 0.618911 21.2094C1.24144 23.4608 2.44699 25.4335 3.98625 27.1903C5.93198 29.4438 8.29022 31.3024 10.9334 32.6658C11.0506 32.7259 11.2059 32.8721 11.2059 32.9677C11.2059 33.0633 11.0329 33.1795 10.9184 33.2587C9.33285 34.3516 7.63692 35.3079 6.17938 36.5538C3.30652 39.0006 1.17061 41.9965 0.354658 45.7698C-0.0699636 47.704 -0.076464 49.7071 0.335584 51.6441C0.422697 52.0595 0.531828 52.4699 0.662504 52.8736C1.13792 54.3477 1.97838 55.6059 2.89105 56.845C5.95871 61.0267 10.0711 63.1456 15.212 63.244C16.9734 63.2768 18.7388 63.1552 20.5001 63.0459C22.9112 62.8942 25.3181 62.6661 27.7292 62.509C29.5368 62.3915 31.3472 62.3027 33.1575 62.2617C33.9435 62.244 34.7336 62.3765 35.5209 62.4489C36.6434 62.5527 37.7672 62.647 38.8869 62.7781C39.5108 62.8505 40.1279 62.9762 40.7449 63.0978C41.9301 63.3314 43.1138 63.5705 44.2948 63.8232C45.3845 64.0555 46.4743 64.3164 47.5641 64.55C48.316 64.7098 49.0734 64.8437 49.9125 65.0049C49.873 64.6156 49.8961 64.3738 49.8185 64.1716C49.482 63.3041 49.1755 62.4161 48.7492 61.5937C47.9182 59.9939 46.8911 58.5622 45.3791 57.4857C43.8072 56.3655 42.0486 56.0226 40.2028 55.9297C38.3979 55.8412 36.5896 56.0063 34.8303 56.4201C33.5907 56.7098 32.347 56.9802 31.1061 57.2576C30.5721 57.3764 30.0368 57.4926 29.3952 57.6319C29.7384 56.7357 30.0436 55.9843 30.316 55.2207C31.1442 52.8982 29.6812 51.3654 27.6121 51.2971C25.5688 51.2302 23.9165 52.2534 22.3935 53.5075C21.5435 54.2125 20.6853 54.9106 19.8054 55.5786C19.4539 55.845 19.0344 56.0226 18.6012 56.2617C18.5685 56.0759 18.5317 56.0007 18.5521 55.9502C18.5998 55.83 18.6802 55.722 18.7401 55.6059C19.5574 54.0116 20.6063 52.5417 20.8066 50.6578C20.9305 49.4856 20.6526 48.4802 20.2494 47.4255C19.5683 45.6495 16.2841 44.7533 14.4397 45.1031C14.478 45.3327 14.5363 45.5585 14.6141 45.7779C15.2802 47.2397 15.5485 48.7425 14.9737 50.2862C13.7477 53.5649 10.5506 54.8054 7.48163 53.1441C6.30333 52.5062 5.35798 50.8217 5.55005 49.7561C5.9301 47.6414 6.40414 45.5498 7.3672 43.6085C8.39975 41.5279 9.74559 39.7219 12.0177 38.9049C13.0789 38.5224 14.2095 38.3175 15.3197 38.0852C17.1987 37.6829 19.1414 37.6829 21.0204 38.0852C23.6331 38.6481 24.682 40.5443 24.7787 42.8421C24.8223 43.8708 24.5512 44.9118 24.4014 46.1208C25.2351 46.0211 26.1218 45.9706 26.9896 45.8025C29.2617 45.3599 30.2724 43.2246 30.5026 41.4309C30.6389 40.3243 30.5857 39.1932 30.6252 38.073C30.6252 38.0238 30.707 37.9787 30.7792 37.8995C30.9532 37.9929 31.1203 38.0988 31.2791 38.2164C32.4901 39.2533 33.6711 40.3257 34.9066 41.3339C37.7672 43.6714 40.6169 46.0416 43.5592 48.2807C46.9225 50.8422 50.7271 52.5089 54.9199 53.0854C57.2803 53.4233 59.6859 53.2367 61.9665 52.5389C64.3313 51.8026 66.4413 50.5335 68.4519 49.0881C71.2743 47.058 73.8502 44.7479 76.2954 42.282C76.4316 42.1454 76.61 42.032 76.9438 41.7711C76.6945 43.946 76.8076 45.8285 78.2419 47.3531C79.7403 48.9351 81.6202 48.9351 83.6784 48.7192C82.3408 47.3832 81.8259 45.8667 82.0043 44.1167C82.1405 42.7205 82.8121 41.6003 83.9877 40.8681C85.5106 39.9118 87.1616 39.7601 88.8915 40.2629C90.4758 40.7219 91.5669 41.6823 92.139 43.2315C92.6551 44.5821 92.7599 46.0561 92.44 47.4665C92.0123 49.4242 91.0656 50.957 89.2811 51.8381C88.0361 52.4515 86.693 52.8532 85.3185 53.3737C85.3185 53.3368 85.2817 53.4638 85.3185 53.5526C86.1358 55.2808 87.4735 56.3696 89.352 56.6947C91.2972 57.0513 92.8623 56.1483 94.294 54.957C95.0854 54.2931 95.8401 53.5909 96.7269 52.7944C96.5007 53.8272 96.2133 54.707 96.137 55.595C96.0104 57.0773 95.7434 58.6278 96.0335 60.0486C96.4966 62.3246 97.8493 64.2057 99.5915 65.7741C99.9117 66.0678 100.151 66.0855 100.424 65.7659ZM117.743 32.9663C117.757 32.9552 117.77 32.9434 117.782 32.9308L117.899 32.8092L117.782 32.9308C117.77 32.9434 117.757 32.9552 117.743 32.9663C117.771 32.9882 117.799 33.0128 117.824 33.036C117.799 33.0128 117.771 32.9882 117.743 32.9663Z" fill="#EFB113"/>
</svg>
