<svg width="40" height="33" viewBox="0 0 40 33" fill="none" xmlns="http://www.w3.org/2000/svg">
<path d="M0 16.4467C0.0675649 16.3685 0.143676 16.296 0.201627 16.2108C0.504734 15.7652 0.899709 15.4151 1.32913 15.1017C1.75263 14.7945 2.21502 14.5461 2.70393 14.363C3.01962 14.2468 3.34224 14.1508 3.66987 14.0755C4.02399 13.9911 4.38344 13.924 4.7437 13.8719C5.02064 13.8358 5.29933 13.8151 5.57851 13.8099C5.8899 13.7996 6.20262 13.7931 6.51321 13.8099C6.90604 13.8325 7.30022 13.8614 7.68825 13.9242C8.08883 13.9892 8.49342 14.0707 8.88065 14.1939C9.31782 14.3342 9.73763 14.53 10.1652 14.701C10.1994 14.7102 10.2342 14.7169 10.2693 14.7212C10.2002 14.5863 10.1433 14.4717 10.0824 14.359C9.87035 13.9577 9.73069 13.5302 9.6065 13.0935C9.42838 12.4678 9.36989 11.8327 9.40381 11.1873C9.4314 10.6251 9.60162 10.0794 9.89813 9.60279C10.3289 8.90614 10.9244 8.39209 11.6607 8.05308C11.99 7.9015 12.3353 7.78176 12.7041 7.75802C12.8624 7.74777 13.0205 7.71271 13.1784 7.71622C13.7371 7.72752 14.2799 7.90585 14.7382 8.22865C15.2244 8.55903 15.6204 9.00766 15.8898 9.5332C16.1149 9.97363 16.2044 10.4443 16.1152 10.9176C16.0014 11.5201 15.6927 12.0234 15.1271 12.3125C14.8763 12.4409 14.6082 12.5013 14.3259 12.4104C14.1534 12.354 13.9787 12.306 13.7728 12.2448C13.8943 12.1156 13.9865 12.019 14.0767 11.9211C14.2834 11.7055 14.4364 11.4433 14.523 11.1563C14.6197 10.8251 14.5654 10.5044 14.366 10.2201C14.0885 9.82421 13.7125 9.55505 13.2491 9.43989C12.6616 9.29371 12.1612 9.48088 11.7536 9.92535C11.4994 10.204 11.3386 10.5365 11.2102 10.8895C11.1055 11.177 11.0427 11.4683 11.0553 11.7755C11.0721 12.19 11.2155 12.5576 11.4572 12.8891C11.8626 13.4458 12.4186 13.7891 13.0491 14.027C13.4593 14.1815 13.877 14.2953 14.3171 14.2967C14.6079 14.2967 14.9046 14.3218 15.1882 14.2748C15.6411 14.1987 16.0735 14.0286 16.4581 13.7753C17.1791 13.3071 17.6812 12.6612 17.9886 11.8623C18.117 11.5287 18.2094 11.1805 18.2233 10.8167C18.2321 10.5802 18.2813 10.3407 18.2572 10.1085C18.2174 9.74292 18.1535 9.38045 18.066 9.02346C17.8395 8.08598 17.2694 7.37828 16.5409 6.78844C16.0789 6.41458 15.5687 6.10607 15.0243 5.87146C14.7444 5.75036 14.46 5.64032 14.143 5.51167C14.2947 5.43076 14.4274 5.34419 14.5703 5.2835C14.8559 5.15769 15.1605 5.08164 15.4713 5.05857C15.7405 5.04158 16.0097 5.02243 16.2791 5.00787C16.9342 4.97254 17.5076 5.21554 18.0401 5.5648C18.5017 5.86442 18.9119 6.23789 19.2547 6.67058C19.2746 6.69358 19.2962 6.71504 19.3193 6.73477C19.3363 6.75299 19.3597 6.76366 19.3845 6.76444C19.346 6.65089 19.3043 6.53762 19.2694 6.42327C19.1834 6.15114 19.0915 5.88063 19.0167 5.60553C18.9401 5.3245 18.8779 5.03915 18.8159 4.75435C18.7852 4.62415 18.7658 4.49149 18.7579 4.35789C18.735 3.79394 18.689 3.22837 18.7117 2.66578C18.7286 2.2534 18.8592 1.84912 19.0229 1.46587C19.2427 0.951279 19.5303 0.47957 19.9162 0.0712411C20.007 -0.0247729 20.0542 -0.0234244 20.1424 0.0733987C20.5307 0.495601 20.8385 0.986601 21.0503 1.5217C21.1823 1.85586 21.299 2.19595 21.3174 2.55574C21.3398 2.98888 21.3687 3.42418 21.3494 3.85624C21.3332 4.22358 21.2669 4.59091 21.1967 4.95312C21.1337 5.27676 21.0426 5.5969 20.9497 5.91407C20.8696 6.18728 20.7699 6.45347 20.6799 6.72479C20.6762 6.73612 20.6831 6.75176 20.688 6.78305C20.8303 6.62959 20.9638 6.48341 21.0973 6.33939C21.5302 5.8809 22.0219 5.50142 22.5966 5.24494C22.9093 5.10523 23.2375 5.00517 23.5874 5.00841C23.8323 5.01084 24.0788 4.99358 24.3215 5.01758C24.8321 5.06828 25.3363 5.15513 25.7831 5.43831C25.8192 5.46097 25.8523 5.48821 25.8921 5.51734C25.6071 5.63547 25.3238 5.73472 25.057 5.86795C24.6879 6.05162 24.3236 6.24823 23.9706 6.46129C23.5166 6.73531 23.1267 7.08997 22.7854 7.49587C22.4625 7.87993 22.2072 8.30498 22.0515 8.79044C21.9469 9.11624 21.8587 9.44366 21.8379 9.78834C21.8229 10.0381 21.7845 10.2889 21.7973 10.5373C21.8344 11.2779 22.0377 11.9724 22.4334 12.6013C22.8471 13.2567 23.4055 13.7492 24.1137 14.0531C24.4294 14.1867 24.7633 14.2715 25.104 14.3045C25.4125 14.3332 25.7232 14.3253 26.0299 14.281C26.3422 14.2366 26.6495 14.1617 26.9475 14.0575C27.2974 13.9369 27.6276 13.7642 27.927 13.545C28.3794 13.2171 28.7375 12.8214 28.9082 12.2712C29.0067 11.9535 29.0313 11.6412 28.9594 11.3122C28.8259 10.6962 28.5794 10.146 28.0945 9.73143C27.9032 9.56961 27.6776 9.4736 27.4249 9.42343C26.6505 9.2697 25.8744 9.84498 25.6114 10.3512C25.4092 10.7401 25.4624 11.1207 25.6704 11.4745C25.8087 11.71 26.0026 11.9122 26.1746 12.1269C26.1954 12.1539 26.2336 12.1652 26.2638 12.1838L26.2515 12.2359C26.118 12.2898 25.9858 12.3543 25.8477 12.3942C25.3628 12.5347 24.9397 12.4028 24.5707 12.0724C24.3303 11.8567 24.1677 11.587 24.0414 11.2925C23.8897 10.94 23.8854 10.5643 23.9431 10.1986C24.0168 9.73224 24.2393 9.32095 24.5325 8.95145C24.8797 8.51508 25.3021 8.17498 25.8085 7.95356C26.0221 7.8597 26.2593 7.81871 26.4871 7.76045C26.5766 7.73504 26.6687 7.71976 26.7616 7.71487C27.5336 7.69168 28.2408 7.91013 28.8903 8.32116C29.5045 8.71007 29.9852 9.23087 30.3121 9.88543C30.4229 10.1071 30.4809 10.3566 30.5543 10.5961C30.6878 11.0276 30.6796 11.4726 30.6507 11.9139C30.6267 12.2192 30.5783 12.5221 30.5057 12.8195C30.4318 13.1504 30.3376 13.4764 30.2237 13.7956C30.1238 14.0696 29.9796 14.3272 29.8546 14.5917C29.8313 14.6315 29.8204 14.6775 29.8234 14.7236C29.9569 14.6646 30.0864 14.5996 30.2216 14.5475C30.502 14.4396 30.7824 14.3258 31.0676 14.2368C31.388 14.137 31.7157 14.0537 32.0437 13.9792C32.2239 13.9382 32.4125 13.938 32.5949 13.9051C33.2238 13.7923 33.8586 13.7845 34.491 13.8136C34.9305 13.8339 35.3685 13.9043 35.8062 13.9612C36.0279 13.9903 36.2533 14.0189 36.4661 14.0836C36.8533 14.2012 37.2374 14.3334 37.6144 14.4812C38.0903 14.6675 38.5224 14.937 38.9249 15.2536C39.3377 15.5772 39.7007 15.9497 39.9781 16.3993C39.9931 16.4315 40.0005 16.4667 40 16.5023C39.9994 16.5378 39.9909 16.5728 39.9749 16.6045C39.6465 17.1263 39.2108 17.5707 38.6973 17.9075C38.3988 18.1094 38.0865 18.2896 37.7627 18.4469C37.4384 18.5962 37.1037 18.721 36.7612 18.8204C36.4049 18.9283 36.0401 19.0073 35.6748 19.0782C35.4545 19.1211 35.227 19.1322 35.0018 19.1435C34.5145 19.1656 34.0255 19.2026 33.5389 19.1861C33.1116 19.1718 32.6865 19.1052 32.264 19.0389C31.9053 18.9819 31.5429 18.9191 31.1979 18.8088C30.7599 18.6691 30.3377 18.4792 29.9088 18.3107L29.8287 18.2788L29.802 18.2988C29.8426 18.3797 29.8792 18.4649 29.9249 18.5437C30.1596 18.9482 30.3107 19.3892 30.4352 19.8364C30.5195 20.1395 30.5771 20.4496 30.6072 20.7631C30.6443 21.1495 30.6817 21.5452 30.6451 21.9279C30.5741 22.6728 30.284 23.3339 29.7865 23.9019C29.4002 24.3463 28.9251 24.7031 28.3925 24.9488C28.0589 25.1028 27.708 25.2185 27.335 25.2455C27.1766 25.256 27.018 25.2916 26.8604 25.2857C26.311 25.2697 25.7777 25.0941 25.3246 24.78C24.8348 24.4407 24.447 24.0132 24.1712 23.4765C23.9404 23.0275 23.8528 22.5485 23.9458 22.0679C24.0726 21.4114 24.4225 20.8825 25.0658 20.6242C25.2696 20.5433 25.4998 20.505 25.7281 20.5872C25.8985 20.6484 26.0753 20.6927 26.2836 20.7547C26.1415 20.9063 26.0283 21.0201 25.9233 21.1409C25.6912 21.4085 25.5371 21.7186 25.4888 22.0708C25.4557 22.312 25.5329 22.5417 25.6632 22.7397C25.9396 23.1594 26.3276 23.4455 26.8115 23.5596C27.399 23.6985 27.9065 23.517 28.3134 23.0628C28.5597 22.7885 28.7196 22.4649 28.8435 22.1215C28.9418 21.8494 29.0115 21.5711 29.0065 21.2766C28.999 20.8625 28.863 20.4613 28.6176 20.1295C28.2144 19.5685 27.6562 19.2155 27.0201 18.9757C26.6195 18.8244 26.2064 18.7462 25.781 18.6923C25.4685 18.6524 25.1649 18.6791 24.8695 18.7263C24.2363 18.8274 23.6726 19.1092 23.1809 19.5316C22.6783 19.9631 22.317 20.4977 22.0772 21.1123C21.9538 21.4281 21.859 21.7572 21.8406 22.1021C21.8275 22.3476 21.7831 22.5946 21.8008 22.8373C21.8245 23.1637 21.8876 23.4879 21.9455 23.811C22.0355 24.3129 22.2537 24.7603 22.5386 25.1773C22.7906 25.5402 23.0914 25.866 23.4322 26.1452C23.865 26.5059 24.3423 26.8084 24.8521 27.0452C25.144 27.1801 25.4495 27.288 25.7486 27.4074C25.7932 27.4252 25.8352 27.4495 25.9116 27.4884C25.7617 27.5714 25.6343 27.6591 25.4944 27.716C25.1969 27.8347 24.8895 27.9237 24.5664 27.9425C24.2881 27.9584 24.0101 27.98 23.7318 27.9922C23.2023 28.0148 22.724 27.8422 22.2703 27.5876C21.6985 27.2656 21.2167 26.8346 20.7982 26.3292C20.7814 26.3089 20.7638 26.2895 20.7448 26.2712C20.7262 26.2517 20.7009 26.2403 20.6741 26.2394C20.7107 26.351 20.7491 26.4619 20.7841 26.5738C20.8725 26.8591 20.9673 27.1429 21.045 27.4312C21.1227 27.7195 21.1841 28.0067 21.2469 28.2961C21.2753 28.4176 21.2931 28.5413 21.3003 28.6659C21.3233 29.2074 21.3743 29.7512 21.3468 30.2906C21.3227 30.7563 21.182 31.2108 20.9852 31.6391C20.7732 32.1114 20.4879 32.5466 20.14 32.928C20.0492 33.0267 20.0032 33.0213 19.9151 32.928C19.5262 32.5123 19.2195 32.0255 19.0114 31.4937C18.8829 31.1701 18.7609 30.8405 18.7443 30.4883C18.7214 30.0236 18.6909 29.5572 18.7109 29.0936C18.7264 28.722 18.7929 28.3498 18.8682 27.9843C18.9844 27.3966 19.1559 26.8214 19.3802 26.2666C19.3829 26.2599 19.3778 26.2496 19.3727 26.2197C19.3267 26.2574 19.2832 26.2981 19.2424 26.3416C18.7529 26.9376 18.1787 27.4269 17.4726 27.7405C17.275 27.8284 17.064 27.9112 16.8522 27.935C16.4754 27.9773 16.0903 28.0086 15.7138 27.9792C15.2133 27.9398 14.7153 27.8462 14.2765 27.5663C14.2618 27.5569 14.2415 27.5547 14.2287 27.5434C14.2077 27.5218 14.1881 27.4988 14.1702 27.4746C14.3571 27.3999 14.5534 27.333 14.7393 27.2451C15.1089 27.0703 15.482 26.8996 15.8374 26.6981C16.3617 26.4013 16.8312 26.0152 17.2251 25.5567C17.5706 25.156 17.8419 24.7083 18.007 24.1991C18.1162 23.8611 18.2054 23.5197 18.2225 23.1621C18.2334 22.9301 18.2759 22.6968 18.2607 22.467C18.2073 21.6509 17.9806 20.8904 17.5007 20.2193C17.0963 19.653 16.582 19.2214 15.9464 18.9488C15.6369 18.8169 15.3143 18.7095 14.969 18.7042C14.8413 18.7023 14.7115 18.6564 14.5868 18.6696C14.2458 18.7066 13.9048 18.7505 13.568 18.8166C13.0363 18.9196 12.5556 19.1502 12.1128 19.4639C11.7472 19.7225 11.4473 20.0411 11.2532 20.4497C11.0678 20.8402 11.0069 21.245 11.0929 21.6795C11.1739 22.108 11.3446 22.5141 11.5937 22.8705C11.8588 23.2462 12.1972 23.5127 12.6755 23.5809C13.4582 23.6926 14.163 23.1734 14.4517 22.628C14.6469 22.2594 14.5852 21.8799 14.3863 21.525C14.3085 21.3884 14.2199 21.2584 14.1213 21.1363C14.0263 21.0168 13.9152 20.9103 13.7894 20.7744C13.9251 20.7164 14.0498 20.6463 14.1833 20.6091C14.7708 20.4451 15.2515 20.6398 15.6406 21.0924C16.0612 21.5808 16.2193 22.1585 16.1154 22.7861C16.031 23.2956 15.7838 23.7406 15.4451 24.1346C15.1065 24.5286 14.7065 24.8482 14.2322 25.0538C14.0105 25.1498 13.7638 25.1924 13.5245 25.2404C13.3602 25.2763 13.1922 25.2909 13.0243 25.2838C12.3623 25.246 11.7211 25.0362 11.1629 24.6748C10.5166 24.2584 10.0098 23.7123 9.6941 23.0062C9.57605 22.7405 9.49715 22.4588 9.45989 22.1701C9.41176 21.7839 9.39559 21.3944 9.41155 21.0055C9.42277 20.7156 9.49327 20.4262 9.55683 20.1425C9.61398 19.8852 9.67861 19.6265 9.77475 19.3822C9.91335 19.0289 10.0835 18.688 10.2397 18.3417C10.2448 18.3301 10.2469 18.3171 10.2595 18.2721C10.1756 18.3058 10.1123 18.332 10.0487 18.3565C9.6925 18.4949 9.34052 18.6464 8.97839 18.7665C8.65793 18.8722 8.32918 18.945 8.00257 19.0267C7.88661 19.0542 7.76892 19.0735 7.65033 19.0847C7.39502 19.1117 7.13972 19.1386 6.88334 19.1516C6.44938 19.1724 6.01355 19.2055 5.58038 19.1883C5.14054 19.1699 4.70097 19.1074 4.26514 19.0405C3.9051 18.9883 3.54907 18.9111 3.19959 18.8093C2.67429 18.6515 2.17089 18.4271 1.70141 18.1416C1.16516 17.8198 0.688024 17.4068 0.29109 16.9209C0.219786 16.8327 0.166108 16.7305 0.0988104 16.6388C0.0739743 16.6048 0.0333819 16.5824 0 16.5546V16.4467ZM24.039 16.5023C23.7772 16.3607 23.5278 16.2466 23.3 16.0978C22.4589 15.5557 21.7514 14.827 21.2314 13.9671C20.822 13.2928 20.5371 12.5647 20.3071 11.8116C20.2121 11.4999 20.1546 11.1765 20.0772 10.8591C20.0708 10.8321 20.0425 10.8105 20.0102 10.7674C19.9936 10.8162 19.9851 10.8359 19.9803 10.8561C19.9036 11.1784 19.8497 11.508 19.7461 11.8211C19.5922 12.2863 19.4173 12.7459 19.2253 13.1966C18.9848 13.7509 18.667 14.2676 18.2815 14.7309C17.9408 15.1462 17.5655 15.5257 17.131 15.834C16.8066 16.0643 16.4463 16.2434 16.1026 16.4459C16.0795 16.4618 16.0574 16.4793 16.0367 16.4983C16.0554 16.5195 16.0765 16.5384 16.0997 16.5546C16.3213 16.673 16.5537 16.7739 16.7646 16.9098C17.8472 17.615 18.7031 18.623 19.228 19.811C19.3748 20.1476 19.5148 20.4885 19.6368 20.8359C19.7316 21.1056 19.7952 21.3855 19.8694 21.6622C19.917 21.8394 19.9584 22.0183 20.0112 22.2313C20.0444 22.1712 20.0719 22.1391 20.0804 22.1024C20.14 21.8529 20.1797 21.5975 20.2561 21.354C20.3835 20.9494 20.512 20.5397 20.6799 20.1503C20.8578 19.7324 21.063 19.327 21.2942 18.9366C21.6507 18.3401 22.1127 17.8282 22.6457 17.384C22.9849 17.1013 23.3401 16.8446 23.7423 16.6577C23.8416 16.6107 23.9351 16.5568 24.039 16.5023ZM5.8007 15.4774C5.31413 15.4707 4.82942 15.4715 4.34659 15.5705C3.97538 15.6468 3.61406 15.742 3.27837 15.9138C3.03508 16.0381 2.79366 16.1789 2.65426 16.4341C2.6353 16.4689 2.63263 16.542 2.65426 16.5662C2.7966 16.7113 2.9328 16.871 3.09971 16.9816C3.40332 17.1817 3.74527 17.3151 4.1033 17.3729C4.42831 17.4268 4.75278 17.5099 5.07965 17.5215C5.8186 17.5485 6.56047 17.579 7.29327 17.426C7.5168 17.3794 7.74593 17.3567 7.96599 17.2977C8.23037 17.2267 8.49662 17.1485 8.74632 17.0371C9.06251 16.8955 9.36322 16.7181 9.66953 16.5546C9.72828 16.5233 9.73175 16.4856 9.66953 16.4467C9.59636 16.4004 9.53039 16.3389 9.45268 16.3041C9.07613 16.1334 8.70252 15.9535 8.31636 15.8084C8.08055 15.7196 7.82578 15.6778 7.57662 15.6312C7.25615 15.5713 6.93569 15.5114 6.61228 15.482C6.34496 15.4569 6.07203 15.4764 5.8007 15.4764V15.4774ZM34.2602 15.4774L34.2586 15.4426C33.8166 15.4731 33.3744 15.5012 32.933 15.5354C32.8098 15.5439 32.6876 15.5636 32.5679 15.5942C32.2012 15.6924 31.8348 15.7924 31.473 15.9049C31.0909 16.0254 30.7296 16.2048 30.4018 16.4368C30.3217 16.4907 30.3297 16.5136 30.4048 16.567C30.926 16.9387 31.517 17.1496 32.1259 17.3033C32.5294 17.405 32.945 17.4937 33.3586 17.5126C34.1363 17.5479 34.9169 17.5895 35.6922 17.4317C36.0628 17.3565 36.4228 17.2626 36.7604 17.0946C36.9962 16.9778 37.2101 16.8303 37.377 16.6183C37.4467 16.5295 37.4571 16.4565 37.372 16.3812C37.236 16.259 37.1108 16.1193 36.9594 16.0212C36.7107 15.8593 36.441 15.7345 36.1462 15.6781C35.7931 15.6107 35.4422 15.5246 35.086 15.4834C34.8144 15.4507 34.5358 15.4761 34.2602 15.4761V15.4774Z" fill="#EFB113"/>
</svg>
