<svg width="42" height="27" viewBox="0 0 42 27" fill="none" xmlns="http://www.w3.org/2000/svg">
<path fill-rule="evenodd" clip-rule="evenodd" d="M42 5.72205e-06C42 5.72205e-06 38.2382 6.49553 36.1437 5.80436C38.5276 8.88899 35.5512 11.3977 35.5512 11.3977C35.5512 11.3977 35.5512 7.2138 32.3543 5.80436C29.1575 4.39493 25.7677 4.08926 23.3839 6.84111C21.0138 9.59296 22.5709 14.7767 26.4429 14.7767C30.315 14.7767 29.9843 9.60576 25.7539 7.60907C29.9843 7.60907 32.1201 8.92739 32.4783 12.1016C32.8366 15.2758 30.5492 17.9893 27.3524 17.9893C24.1555 17.9893 23.0118 17.6309 23.0118 17.6309C23.6319 20.6899 28.7992 20.9715 28.7992 20.9715C28.7992 20.9715 26.126 23.749 22.8189 21.5219C23.5906 23.4802 21.0138 27 21.0138 27C21.0138 27 18.437 23.4802 19.1811 21.5347C15.874 23.7618 13.2008 20.9843 13.2008 20.9843C13.2008 20.9843 18.3681 20.7027 18.9882 17.6437C18.9882 17.6437 17.8445 18.0021 14.6476 18.0021C11.4508 18.0021 9.16338 15.2886 9.52165 12.1144C9.87992 8.94019 12.0157 7.62187 16.2461 7.62187C12.0157 9.61856 11.6713 14.7895 15.5571 14.7895C19.4429 14.7895 21 9.60575 18.6161 6.85391C16.2461 4.10206 10.4202 5.81716 10.4202 5.81716C6.44882 7.62187 6.44882 11.4105 6.44882 11.4105C6.44882 11.4105 3.47244 8.91459 5.85629 5.81716C3.76181 6.50833 -2.36042e-06 1.76441e-06 -2.36042e-06 1.76441e-06L42 5.72205e-06Z" fill="#EFB113"/>
</svg>
