<svg width="60" height="35" viewBox="0 0 60 35" fill="none" xmlns="http://www.w3.org/2000/svg">
<path fill-rule="evenodd" clip-rule="evenodd" d="M27.7894 27.7165C25.1626 30.362 21.5226 32 17.5 32C9.49187 32 3 25.5081 3 17.5C3 9.49187 9.49187 3 17.5 3C21.5226 3 25.1626 4.63804 27.7894 7.28347C25.7189 10.1582 24.4992 13.6867 24.4992 17.5C24.4992 21.3133 25.7189 24.8418 27.7894 27.7165ZM29.7496 29.9979C26.5931 33.0921 22.2694 35 17.5 35C7.83502 35 0 27.165 0 17.5C0 7.83502 7.83502 0 17.5 0C22.2694 0 26.5931 1.9079 29.7496 5.00212C32.9062 1.9079 37.2299 0 41.9992 0C51.6642 0 59.4992 7.83502 59.4992 17.5C59.4992 27.165 51.6642 35 41.9992 35C37.2299 35 32.9062 33.0921 29.7496 29.9979ZM31.7098 7.28348C34.3366 4.63804 37.9766 3 41.9992 3C50.0074 3 56.4992 9.49187 56.4992 17.5C56.4992 25.5081 50.0074 32 41.9992 32C37.9766 32 34.3366 30.362 31.7098 27.7165C33.7803 24.8418 35 21.3133 35 17.5C35 13.6867 33.7803 10.1582 31.7098 7.28348ZM29.7496 9.73789C31.1747 11.9821 32 14.6447 32 17.5C32 20.3553 31.1747 23.0179 29.7496 25.2621C28.3245 23.0179 27.4992 20.3553 27.4992 17.5C27.4992 14.6447 28.3245 11.9821 29.7496 9.73789Z" fill="white"/>
</svg>
